<svg xmlns="http://www.w3.org/2000/svg" viewBox="0 0 24 24">
  <path d="M7.5 1C7.372 1 7.2439844 1.0489844 7.1464844 1.1464844C6.9514844 1.3414844 6.9514844 1.6585156 7.1464844 1.8535156L8.4570312 3.1640625C6.9691108 4.2559188 6 6.0127547 6 8L18 8C18 6.0127547 17.030889 4.2559188 15.542969 3.1640625L16.853516 1.8535156C17.048516 1.6575156 17.048516 1.3424844 16.853516 1.1464844C16.658516 0.95148437 16.341484 0.95148438 16.146484 1.1464844L14.664062 2.6289062C13.860616 2.2295595 12.95819 2 12 2C11.04181 2 10.139384 2.2295595 9.3359375 2.6289062L7.8535156 1.1464844C7.7560156 1.0489844 7.628 1 7.5 1 z M 9 5L10 5L10 6L9 6L9 5 z M 14 5L15 5L15 6L14 6L14 5 z M 4 9C3.448 9 3 9.448 3 10L3 16C3 16.552 3.448 17 4 17C4.552 17 5 16.552 5 16L5 10C5 9.448 4.552 9 4 9 z M 6 9L6 17C6 17.552 6.448 18 7 18L8 18L8 21.5C8 22.328 8.672 23 9.5 23C10.328 23 11 22.328 11 21.5L11 18L13 18L13 21.5C13 22.328 13.672 23 14.5 23C15.328 23 16 22.328 16 21.5L16 18L17 18C17.552 18 18 17.552 18 17L18 9L6 9 z M 20 9C19.448 9 19 9.448 19 10L19 16C19 16.552 19.448 17 20 17C20.552 17 21 16.552 21 16L21 10C21 9.448 20.552 9 20 9 z" fill="#FFFFFF" />
</svg>