<svg xmlns="http://www.w3.org/2000/svg" viewBox="0 0 32 32"><path d="M5 6C3.90625 6 3 6.90625 3 8L3 12C3 13.09375 3.90625 14 5 14L9 14L9 15L4 15C3.640625 14.996094 3.304688 15.183594 3.121094 15.496094C2.941406 15.808594 2.941406 16.191406 3.121094 16.503906C3.304688 16.816406 3.640625 17.003906 4 17L9.03125 17C10.113281 17 11 16.113281 11 15.03125L11 12C11.007813 11.9375 11.007813 11.875 11 11.8125L11 8C11 6.90625 10.09375 6 9 6 Z M 14 6C12.90625 6 12 6.90625 12 8L12 12C12 13.09375 12.90625 14 14 14L18 14C19.09375 14 20 13.09375 20 12L20 8C20 6.90625 19.09375 6 18 6 Z M 23 6C21.90625 6 21 6.90625 21 8L21 12C21 13.09375 21.90625 14 23 14L27 14L27 15L22 15C21.640625 14.996094 21.304688 15.183594 21.121094 15.496094C20.941406 15.808594 20.941406 16.191406 21.121094 16.503906C21.304688 16.816406 21.640625 17.003906 22 17L27.03125 17C28.113281 17 29 16.113281 29 15.03125L29 12C29.007813 11.9375 29.007813 11.875 29 11.8125L29 8C29 6.90625 28.09375 6 27 6 Z M 5 8L9 8L9 11.8125C8.996094 11.855469 8.996094 11.894531 9 11.9375L9 12L5 12 Z M 14 8L18 8L18 12L14 12 Z M 23 8L27 8L27 11.8125C26.996094 11.855469 26.996094 11.894531 27 11.9375L27 12L23 12 Z M 23.90625 17.96875C23.863281 17.976563 23.820313 17.988281 23.78125 18L21 18C19.90625 18 19 18.90625 19 20L19 25C18.996094 25.359375 19.183594 25.695313 19.496094 25.878906C19.808594 26.058594 20.191406 26.058594 20.503906 25.878906C20.816406 25.695313 21.003906 25.359375 21 25L21 20L23 20L23 25C22.996094 25.359375 23.183594 25.695313 23.496094 25.878906C23.808594 26.058594 24.191406 26.058594 24.503906 25.878906C24.816406 25.695313 25.003906 25.359375 25 25L25 20L27 20L27 25.03125C26.996094 25.390625 27.183594 25.726563 27.496094 25.910156C27.808594 26.089844 28.191406 26.089844 28.503906 25.910156C28.816406 25.726563 29.003906 25.390625 29 25.03125L29 18L24.1875 18C24.097656 17.976563 24 17.964844 23.90625 17.96875 Z M 5 18C3.90625 18 3 18.90625 3 20L3 24C3 25.09375 3.90625 26 5 26L8 26C8.359375 26.003906 8.695313 25.816406 8.878906 25.503906C9.058594 25.191406 9.058594 24.808594 8.878906 24.496094C8.695313 24.183594 8.359375 23.996094 8 24L5 24L5 20L8 20C8.359375 20.003906 8.695313 19.816406 8.878906 19.503906C9.058594 19.191406 9.058594 18.808594 8.878906 18.496094C8.695313 18.183594 8.359375 17.996094 8 18 Z M 12 18C10.90625 18 10 18.90625 10 20L10 24C10 25.09375 10.90625 26 12 26L16 26C17.09375 26 18 25.09375 18 24L18 20C18 18.90625 17.09375 18 16 18 Z M 12 20L16 20L16 24L12 24Z"/></svg>