<svg xmlns="http://www.w3.org/2000/svg" viewBox="0 0 26 26">
  <path fill-rule="evenodd" d="M13.253906 23.199219C14.488281 22.972656 15.460938 22.296875 16.179688 21.628906C16.125 22.074219 16.054688 22.457031 15.992188 22.796875C15.90625 23.246094 15.835938 23.644531 15.820313 24.070313C15.816406 24.296875 15.828125 24.503906 15.859375 24.695313C14.617188 24.40625 14.078125 24.476563 12.574219 24.566406C11.527344 24.628906 11.265625 24.59375 10.96875 24.671875C11 24.503906 11.011719 24.300781 11.003906 24.03125C11 23.71875 10.941406 23.46875 10.847656 23.242188C11.328125 23.367188 12.089844 23.417969 13.253906 23.199219 Z M 8.5625 19.101563C8.085938 18.679688 7.769531 18.445313 7.46875 18.195313C7.449219 18.175781 7.429688 18.164063 7.414063 18.148438C7.679688 18.464844 7.992188 18.890625 8.363281 19.46875C8.574219 19.804688 8.714844 20.027344 8.863281 20.269531C9.042969 20.5625 9.246094 20.894531 9.625 21.488281C9.6875 21.589844 9.742188 21.675781 9.804688 21.761719C10.011719 21.722656 10.21875 21.644531 10.3125 21.511719C10.539063 21.171875 10.40625 20.789063 10.257813 20.546875C10.113281 20.308594 9.066406 19.542969 8.5625 19.101563 Z M 5.1875 17.59375C5.027344 16.789063 5.132813 16.519531 5.601563 15.347656C6.050781 14.226563 6.585938 12.929688 7.414063 11.683594C8.421875 10.167969 9.511719 9.363281 9.429688 8.191406C9.113281 3.832031 8.859375 1.652344 10.796875 0.648438C12.640625 -0.308594 14.179688 0.257813 14.789063 0.585938C15.054688 0.726563 15.585938 1 15.984375 1.480469C16.382813 1.945313 16.742188 2.65625 16.941406 3.554688C17.355469 5.351563 16.773438 4.761719 17.238281 6.816406C17.703125 8.875 18.644531 9.882813 19.796875 11.511719C20.941406 13.140625 22.144531 15.824219 21.761719 17.375C21.714844 17.5625 21.640625 17.785156 21.546875 18.027344C21.503906 18.015625 21.457031 18.011719 21.40625 18.011719C21.300781 18.011719 21.210938 18.03125 21.164063 18.039063L21.160156 18.039063C21.09375 18.046875 21.035156 18.0625 20.980469 18.097656C20.960938 17.917969 20.664063 17.746094 20.433594 17.652344C20.199219 17.558594 19.941406 17.519531 19.941406 17.519531C19.941406 17.519531 19.648438 17.476563 19.394531 17.464844C19.308594 17.460938 19.320313 17.460938 19.21875 17.46875C19.324219 17.292969 19.734375 16.527344 19.671875 15.015625C19.597656 13.214844 17.648438 12.175781 17.601563 12.253906C17.570313 12.3125 18.152344 12.445313 18.761719 13.253906C19.304688 13.984375 19.582031 14.953125 19.472656 15.730469C19.398438 16.265625 19.355469 16.46875 19.25 16.824219C19.167969 17.089844 19.058594 17.355469 19.007813 17.476563C18.828125 17.5 18.652344 17.539063 18.554688 17.605469C18.378906 17.71875 18.238281 17.902344 18.339844 17.882813C18.441406 17.859375 18.550781 17.695313 18.761719 17.625C18.976563 17.558594 19.34375 17.5625 19.484375 17.566406C19.632813 17.574219 19.992188 17.613281 20.238281 17.695313C20.484375 17.777344 20.683594 17.898438 20.789063 18.054688C20.820313 18.109375 20.851563 18.148438 20.882813 18.175781C20.789063 18.265625 20.703125 18.40625 20.578125 18.597656C20.519531 18.6875 20.445313 18.804688 20.414063 18.84375C20.339844 18.9375 20.058594 19.171875 19.839844 19.3125C19.691406 19.402344 19.613281 19.445313 19.367188 19.445313C19.3125 19.445313 19.253906 19.445313 19.1875 19.441406C18.882813 19.414063 18.800781 19.34375 18.6875 19.246094C18.667969 19.230469 18.652344 19.214844 18.636719 19.199219L18.601563 19.175781C18.492188 19.074219 18.492188 19.074219 18.5 18.996094L18.511719 18.890625C18.550781 18.550781 18.585938 18.226563 18.351563 17.996094C18.230469 17.871094 18.09375 17.808594 17.9375 17.777344C17.972656 17.445313 18.003906 17.066406 18.003906 16.84375C18.003906 15.792969 17.878906 14.722656 17.636719 13.9375C17.414063 13.203125 17.066406 12.6875 16.761719 12.023438C16.15625 10.695313 16.1875 10.105469 15.648438 9.257813C15.355469 8.792969 15.273438 8.402344 15.175781 8.125C15.347656 7.894531 15.4375 7.582031 15.464844 7.160156C15.488281 6.789063 15.28125 6.558594 14.992188 6.398438C15.085938 6.277344 15.144531 6.128906 15.195313 5.949219C15.3125 5.496094 15.320313 4.992188 14.980469 4.402344C14.664063 3.839844 14.484375 3.75 14.023438 3.714844C13.320313 3.652344 12.988281 4.148438 12.832031 4.5C12.664063 4.882813 12.699219 4.828125 12.710938 5.3125C12.710938 5.375 12.714844 5.4375 12.71875 5.496094C12.558594 5.460938 12.398438 5.449219 12.265625 5.449219C12.1875 5.449219 12.109375 5.453125 12.039063 5.460938C11.976563 5.46875 11.921875 5.476563 11.867188 5.476563C11.796875 5.484375 11.726563 5.484375 11.652344 5.496094C11.660156 5.414063 11.664063 5.3125 11.664063 5.199219C11.664063 4.691406 11.507813 4.523438 11.269531 4.195313C11.039063 3.878906 10.679688 3.863281 10.453125 3.90625C10.320313 3.925781 10.152344 4.09375 10.035156 4.34375C9.960938 4.511719 9.898438 4.722656 9.894531 4.941406C9.878906 5.539063 9.929688 5.761719 10.066406 6.164063C10.101563 6.265625 10.144531 6.355469 10.195313 6.433594C10.179688 6.445313 10.167969 6.453125 10.15625 6.464844C9.835938 6.726563 9.558594 6.957031 9.574219 7.445313C9.582031 7.835938 9.804688 8.140625 10.078125 8.402344C10.027344 8.773438 10.015625 8.859375 10.015625 9.375C10.015625 9.792969 9.824219 9.824219 9.410156 10.453125C9.300781 10.628906 9.199219 10.808594 9.113281 11C9.066406 11.164063 9.039063 11.292969 9.082031 11.433594C9.203125 11.851563 9.816406 11.933594 9.785156 12.070313C9.753906 12.210938 9.273438 12.277344 8.933594 12.46875C8.757813 12.570313 8.652344 12.714844 8.449219 12.898438C8.15625 13.574219 7.617188 14.332031 7.476563 14.96875C7.304688 15.722656 7.09375 16.207031 7.128906 17.21875C7.136719 17.5 7.144531 17.671875 7.164063 17.789063C7.015625 17.628906 6.847656 17.433594 6.761719 17.261719C6.601563 16.9375 6.519531 16.46875 6.570313 15.902344C6.628906 15.257813 6.753906 14.894531 7.101563 14.050781C7.480469 13.144531 7.757813 12.945313 7.683594 12.855469C7.621094 12.785156 7.273438 13.441406 7.152344 13.695313C6.832031 14.382813 6.558594 15.027344 6.464844 15.847656C6.398438 16.445313 6.472656 16.871094 6.636719 17.226563C6.675781 17.320313 6.777344 17.457031 6.890625 17.605469C6.484375 17.257813 6.257813 17.246094 6.136719 17.246094C5.710938 17.234375 5.414063 17.398438 5.1875 17.59375 Z M 16.347656 8.59375C16.632813 8.875 16.808594 8.875 16.921875 8.75C17.144531 8.515625 16.96875 8.289063 16.832031 8.136719C16.695313 7.980469 16.519531 8.03125 16.355469 7.878906C16.203125 7.722656 16.089844 7.734375 16.023438 7.808594C15.980469 7.859375 16.0625 8.300781 16.347656 8.59375 Z M 14.679688 3.441406C14.519531 3.378906 14.316406 3.371094 14.320313 3.40625C14.320313 3.449219 14.542969 3.488281 14.632813 3.523438C14.726563 3.558594 14.9375 3.742188 15.019531 3.835938C15.105469 3.933594 15.257813 4.246094 15.308594 4.230469C15.359375 4.21875 15.25 4.007813 15.167969 3.890625C15.085938 3.777344 14.835938 3.511719 14.679688 3.441406 Z M 14.304688 2.203125C14.453125 2.269531 14.992188 2.007813 14.972656 1.867188C14.941406 1.660156 14.722656 1.402344 14.628906 1.394531C14.539063 1.386719 14.332031 1.386719 14.277344 1.46875C14.21875 1.539063 14.144531 2.144531 14.304688 2.203125 Z M 10.871094 3.566406C10.871094 3.640625 11.109375 3.617188 11.351563 3.828125C11.601563 4.042969 11.628906 4.234375 11.703125 4.226563C11.777344 4.222656 11.667969 3.984375 11.410156 3.757813C11.210938 3.582031 10.867188 3.496094 10.871094 3.566406 Z M 23.398438 21.324219C23.109375 21.160156 22.359375 20.558594 21.984375 19.96875C21.761719 19.601563 22.082031 19.015625 21.769531 18.5625C21.582031 18.289063 21.25 18.402344 21.199219 18.402344C21.144531 18.402344 20.855469 18.90625 20.742188 19.054688C20.617188 19.203125 20.296875 19.46875 20.0625 19.613281C19.828125 19.757813 19.648438 19.84375 19.152344 19.804688C18.660156 19.765625 18.519531 19.597656 18.363281 19.46875C18.207031 19.328125 18.050781 19.226563 18.082031 18.898438C18.117188 18.570313 18.15625 18.339844 18.058594 18.238281C17.949219 18.132813 17.804688 18.109375 17.484375 18.109375C17.160156 18.109375 17.097656 18.121094 16.828125 18.292969C16.675781 18.382813 16.667969 18.984375 16.667969 19.691406C16.667969 20.25 16.671875 20.878906 16.621094 21.386719C16.503906 22.570313 16.265625 23.265625 16.242188 24.027344C16.21875 24.792969 16.476563 25.308594 16.707031 25.507813C16.9375 25.71875 17.277344 25.875 18.027344 25.875C18.777344 25.875 19.246094 25.707031 19.738281 25.214844C20.058594 24.894531 20.394531 24.597656 21.371094 23.925781C22.148438 23.398438 23.316406 22.820313 23.550781 22.585938C23.664063 22.472656 23.871094 22.359375 23.886719 21.941406C23.894531 21.570313 23.605469 21.453125 23.398438 21.324219 Z M 9.269531 21.660156C8.578125 20.5625 8.46875 20.363281 8.007813 19.640625C7.550781 18.921875 6.644531 17.621094 6.125 17.609375C5.714844 17.597656 5.480469 17.820313 5.222656 18.082031C4.964844 18.34375 4.648438 19.011719 4.195313 19.339844C3.742188 19.664063 2.59375 19.632813 2.300781 20.019531C2.015625 20.398438 2.3125 20.953125 2.304688 21.984375C2.304688 22.421875 2.230469 22.753906 2.179688 23.019531C2.109375 23.359375 2.066406 23.59375 2.203125 23.835938C2.464844 24.265625 2.875 24.371094 5.238281 24.863281C6.503906 25.125 7.695313 25.804688 8.496094 25.871094C9.300781 25.933594 9.472656 25.664063 9.960938 25.230469C10.441406 24.796875 10.601563 24.933594 10.585938 23.980469C10.566406 23.035156 9.960938 22.753906 9.269531 21.660156 Z M 10.546875 8.488281C10.175781 8.1875 9.828125 7.863281 9.820313 7.441406C9.800781 6.992188 10.09375 6.84375 10.511719 6.488281C10.554688 6.445313 10.609375 6.398438 10.671875 6.351563C10.558594 6.324219 10.523438 6.222656 10.386719 6.078125C10.332031 6.015625 10.164063 5.726563 10.164063 5.484375C10.164063 5.335938 10.132813 5.113281 10.261719 4.925781C10.351563 4.78125 10.46875 4.71875 10.632813 4.71875C10.78125 4.71875 10.972656 4.820313 11.0625 4.953125C11.160156 5.089844 11.230469 5.28125 11.230469 5.496094C11.230469 5.652344 11.222656 5.8125 11.191406 5.953125C11.261719 5.910156 11.328125 5.867188 11.390625 5.835938C11.644531 5.710938 11.804688 5.734375 12.066406 5.703125C12.433594 5.660156 12.9375 5.75 13.167969 5.921875C13.238281 5.972656 13.300781 6.015625 13.359375 6.054688C13.308594 5.882813 13.296875 5.648438 13.296875 5.46875C13.296875 5.191406 13.375 4.996094 13.515625 4.835938C13.625 4.722656 13.816406 4.695313 13.976563 4.695313C14.355469 4.695313 14.574219 5.035156 14.652344 5.46875C14.679688 5.664063 14.636719 5.890625 14.515625 6.046875C14.402344 6.195313 14.222656 6.296875 14.050781 6.328125C14.640625 6.492188 15.253906 6.640625 15.21875 7.144531C15.175781 7.855469 14.96875 8.171875 14.378906 8.359375C13.902344 8.507813 13.058594 9.324219 12.402344 9.324219C12.109375 9.324219 11.703125 9.34375 11.464844 9.257813C11.238281 9.179688 10.921875 8.796875 10.546875 8.488281 Z M 14.140625 5.148438C14.191406 5.210938 14.222656 5.367188 14.296875 5.304688C14.378906 5.242188 14.378906 5.152344 14.277344 5.042969C14.179688 4.933594 14.09375 4.894531 14.054688 4.933594C13.976563 5.011719 14.050781 5.058594 14.140625 5.148438 Z M 12.363281 6.050781C12.417969 6.164063 12.558594 6.179688 12.652344 6.238281C12.746094 6.289063 12.796875 6.296875 12.832031 6.277344C12.910156 6.238281 12.851563 6.089844 12.769531 6.039063C12.695313 5.988281 12.332031 5.980469 12.363281 6.050781 Z M 11.253906 6.222656C11.238281 6.265625 11.363281 6.351563 11.425781 6.289063C11.492188 6.238281 11.574219 6.179688 11.609375 6.160156C11.734375 6.082031 11.683594 6.023438 11.480469 6.050781C11.273438 6.09375 11.273438 6.175781 11.253906 6.222656 Z M 10.773438 5.199219C10.851563 5.296875 10.847656 5.445313 10.933594 5.410156C10.964844 5.402344 10.953125 5.152344 10.894531 5.042969C10.832031 4.941406 10.691406 4.929688 10.664063 4.980469C10.636719 5.042969 10.695313 5.101563 10.773438 5.199219 Z M 10.253906 7.988281C10.429688 8.132813 10.648438 8.269531 10.835938 8.363281C10.945313 8.417969 11.226563 8.484375 11.226563 8.484375C11.488281 8.515625 11.738281 8.507813 11.898438 8.507813C12.277344 8.507813 12.746094 8.351563 13.238281 8.113281C13.722656 7.871094 13.839844 7.777344 14.179688 7.578125C14.515625 7.394531 14.933594 7.152344 14.785156 7.078125C14.640625 7.007813 14.492188 7.109375 14.015625 7.398438C13.550781 7.683594 13.230469 7.855469 12.769531 8.058594C12.558594 8.148438 12.273438 8.261719 12.066406 8.277344C11.863281 8.289063 11.601563 8.285156 11.445313 8.285156C11.261719 8.285156 11.058594 8.210938 10.871094 8.144531C10.753906 8.101563 10.640625 8.03125 10.59375 7.992188C10.433594 7.890625 10.148438 7.617188 10.050781 7.554688C10.019531 7.546875 9.9375 7.550781 9.953125 7.609375C10.003906 7.773438 10.109375 7.875 10.253906 7.988281Z" fill="#FFFFFF" />
</svg>