<svg xmlns="http://www.w3.org/2000/svg" viewBox="0 0 30 30"><path d="M15.052734 0C14.870581 -0.0019035645 14.68625 0.00525 14.5 0.0234375C11.978 0.2704375 10.125531 2.483 10.019531 5L12.009766 5C12.061766 3.596 13.017344 2.3275938 14.402344 2.0585938C16.317344 1.6865938 18 3.15 18 5L20 5C20 2.260625 17.785034 0.028553467 15.052734 0 z M 20 5L20 7C20 7.552 19.552 8 19 8C18.448 8 18 7.552 18 7L18 5L12.009766 5C12.007766 5.04 12 5.0771875 12 5.1171875L12 7C12 7.552 11.552 8 11 8C10.448 8 10 7.552 10 7L10 5.2226562C10 5.1466563 10.016531 5.075 10.019531 5L4 5L4 24C4 25.105 4.895 26 6 26L24 26C25.105 26 26 25.105 26 24L26 5L20 5 z M 13 12C13.167 12 13.318031 12.050047 13.457031 12.123047L18.470703 15.132812C18.780703 15.302812 19 15.621 19 16C19 16.379 18.780703 16.696234 18.470703 16.865234L13.457031 19.875C13.318031 19.949 13.167 20 13 20C12.448 20 12 19.552 12 19L12 16L12 13C12 12.448 12.448 12 13 12 z"/></svg>