<svg xmlns="http://www.w3.org/2000/svg" viewBox="0 0 32 32">
  <path d="M12.9375 6L12.9375 24.75L17 26L17 10.34375C17 9.929688 17.046875 9.644531 17.21875 9.46875C17.390625 9.230469 17.570313 9.210938 17.8125 9.3125C18.402344 9.484375 18.65625 9.980469 18.65625 10.84375L18.65625 17.15625C19.972656 17.777344 21.167969 17.84375 22.03125 17.1875C22.933594 16.566406 23.40625 15.441406 23.40625 13.78125C23.40625 12.054688 23.078125 10.742188 22.3125 9.875C21.621094 8.941406 20.398438 8.183594 18.59375 7.5625C16.34375 6.835938 14.460938 6.320313 12.9375 6 Z M 11.6875 17.34375L10.875 17.59375L5.84375 19.40625L4.96875 19.75C3.652344 20.304688 2.964844 20.886719 3 21.40625C3.070313 22.167969 3.941406 22.710938 5.5 23.125C7.523438 23.671875 9.585938 23.78125 11.6875 23.46875L11.6875 21.34375L10.875 21.65625L10 22L8.53125 22.28125L7.15625 22.09375C6.878906 21.917969 6.824219 21.734375 7 21.5625C7.171875 21.457031 7.410156 21.324219 7.6875 21.21875L8.625 20.875L11.6875 19.8125 Z M 23.34375 18.34375C22.96875 18.328125 22.582031 18.355469 22.21875 18.375C20.871094 18.402344 19.5 18.640625 18.0625 19.09375L18.0625 21.59375L20.90625 20.59375L22.375 20.09375C22.375 20.09375 22.9375 19.949219 23.34375 19.84375C23.964844 19.679688 24.625 19.90625 24.625 19.90625C25.003906 19.941406 25.179688 20.074219 25.25 20.25C25.320313 20.457031 25.082031 20.636719 24.5625 20.8125L23.28125 21.3125L18.0625 23.1875L18.0625 25.625L20.5 24.75L26.34375 22.6875L27.0625 22.375C28.449219 21.855469 29.070313 21.285156 29 20.59375C28.964844 19.933594 28.199219 19.417969 26.8125 18.96875C25.644531 18.578125 24.46875 18.386719 23.34375 18.34375Z" fill="#6F6F6F" />
</svg>